<svg width="1911" height="881" viewBox="0 0 1911 881" fill="none" xmlns="http://www.w3.org/2000/svg">
<g clip-path="url(#clip0_2_13)">
<line y1="-2.5" x2="345.034" y2="-2.5" transform="matrix(0.0139409 0.999903 -0.999887 0.0150633 163.542 366)" stroke="#13AA52" stroke-width="5"/>
<path d="M26.429 256.152C30.7752 240.34 38.8059 225.886 49.8097 214.07C60.8135 202.255 74.4507 193.443 89.5134 188.414C104.576 183.386 120.599 182.296 136.164 185.243C151.728 188.189 166.353 195.08 178.744 205.305C191.134 215.53 200.908 228.774 207.198 243.863C213.489 258.952 216.102 275.421 214.807 291.811C213.512 308.201 208.348 324.006 199.773 337.826C191.199 351.646 179.477 363.054 165.648 371.041L163.7 367.395C176.952 359.742 188.185 348.809 196.402 335.566C204.619 322.322 209.568 307.176 210.809 291.47C212.05 275.763 209.546 259.981 203.517 245.521C197.489 231.061 188.123 218.369 176.25 208.571C164.376 198.772 150.36 192.169 135.445 189.345C120.53 186.522 105.175 187.566 90.74 192.384C76.3054 197.203 63.2369 205.648 52.692 216.971C42.147 228.294 34.4512 242.145 30.2862 257.298L26.429 256.152Z" fill="#13AA52"/>
<path d="M262.05 811.25C249.167 810.862 236.491 807.788 224.774 802.209C213.057 796.63 202.538 788.661 193.841 778.775C185.144 768.889 178.446 757.287 174.146 744.658C169.846 732.029 168.031 718.631 168.808 705.259L172.812 705.51C172.067 718.325 173.807 731.164 177.928 743.267C182.049 755.369 188.467 766.487 196.801 775.961C205.135 785.435 215.216 793.072 226.445 798.418C237.673 803.764 249.821 806.71 262.166 807.081L262.05 811.25Z" fill="#13AA52"/>
<path d="M256.235 806.678C269.123 806.769 281.861 809.55 293.694 814.858C305.528 820.165 316.214 827.889 325.12 837.573C334.026 847.256 340.969 858.701 345.537 871.228C350.106 883.754 352.206 897.107 351.714 910.494L347.705 910.335C348.177 897.506 346.164 884.71 341.786 872.706C337.408 860.701 330.755 849.734 322.22 840.454C313.686 831.175 303.445 823.772 292.105 818.686C280.765 813.6 268.558 810.935 256.208 810.848L256.235 806.678Z" fill="#13AA52"/>
<rect x="917.5" y="574.5" width="31" height="32" rx="8.5" stroke="#13AA52" stroke-width="3"/>
<rect x="1762.5" y="815.5" width="32" height="32" rx="8.5" stroke="#13AA52" stroke-width="3"/>
<rect x="469.5" y="268.5" width="32" height="32" rx="8.5" stroke="#13AA52" stroke-width="3"/>
<rect x="1265.5" y="219.5" width="32" height="32" rx="8.5" stroke="#13AA52" stroke-width="3"/>
<path d="M813.5 195.5C813.5 207.163 804.482 216.5 793.5 216.5C782.518 216.5 773.5 207.163 773.5 195.5C773.5 183.837 782.518 174.5 793.5 174.5C804.482 174.5 813.5 183.837 813.5 195.5Z" stroke="#DB3C02" stroke-width="3"/>
<path d="M1573.5 688.5C1573.5 700.163 1564.48 709.5 1553.5 709.5C1542.52 709.5 1533.5 700.163 1533.5 688.5C1533.5 676.837 1542.52 667.5 1553.5 667.5C1564.48 667.5 1573.5 676.837 1573.5 688.5Z" stroke="#DB3C02" stroke-width="3"/>
<path d="M1872.5 137.5C1872.5 149.163 1863.48 158.5 1852.5 158.5C1841.52 158.5 1832.5 149.163 1832.5 137.5C1832.5 125.837 1841.52 116.5 1852.5 116.5C1863.48 116.5 1872.5 125.837 1872.5 137.5Z" stroke="#DB3C02" stroke-width="3"/>
<path d="M393.5 813.5C393.5 825.163 384.482 834.5 373.5 834.5C362.518 834.5 353.5 825.163 353.5 813.5C353.5 801.837 362.518 792.5 373.5 792.5C384.482 792.5 393.5 801.837 393.5 813.5Z" stroke="#DB3C02" stroke-width="3"/>
</g>
<defs>
<clipPath id="clip0_2_13">
<rect width="1911" height="881" fill="white"/>
</clipPath>
</defs>
</svg>
